<?xml version="1.0" standalone="no"?>
<!DOCTYPE svg PUBLIC "-//W3C//DTD SVG 20010904//EN"
 "http://www.w3.org/TR/2001/REC-SVG-20010904/DTD/svg10.dtd">
<svg version="1.0" xmlns="http://www.w3.org/2000/svg"
 width="180.000000pt" height="180.000000pt" viewBox="0 0 180.000000 180.000000"
 preserveAspectRatio="xMidYMid meet">
<metadata>
Created by potrace 1.11, written by Peter Selinger 2001-2013
</metadata>
<g transform="translate(0.000000,180.000000) scale(0.100000,-0.100000)"
fill="#000000" stroke="none">
<path d="M206 1781 c14 -34 17 -54 7 -48 -5 3 -10 0 -10 -8 0 -8 4 -12 8 -9 4
2 11 -6 15 -18 4 -15 1 -26 -12 -36 -15 -11 -15 -13 -3 -9 13 4 23 -8 43 -52
31 -69 34 -121 8 -144 -21 -19 -42 -6 -42 25 0 24 -21 68 -33 68 -5 0 -2 -11
7 -25 23 -36 20 -42 -10 -14 -15 14 -23 31 -21 41 7 26 -9 32 -35 14 -12 -9
-17 -16 -11 -16 7 0 15 5 18 10 12 19 26 11 15 -9 -8 -16 -5 -23 20 -41 29
-20 44 -60 18 -44 -10 6 -10 4 0 -8 16 -20 -1 -34 -35 -29 -19 2 -22 -1 -16
-16 7 -17 6 -17 -11 0 -14 14 -16 20 -6 32 7 8 8 15 3 15 -5 0 -15 -11 -21
-24 -6 -13 -20 -27 -31 -31 -12 -3 -21 -11 -21 -16 0 -5 -5 -9 -11 -9 -5 0 -8
4 -5 9 8 12 -14 71 -25 71 -5 0 -9 -226 -9 -540 l0 -540 29 0 c38 0 40 -5 34
-63 -5 -44 -7 -47 -34 -47 -22 0 -29 -5 -29 -20 0 -14 7 -20 23 -21 l22 0 -23
-9 c-27 -12 -29 -30 -2 -30 27 0 27 -40 0 -47 -18 -5 -20 -14 -20 -74 l0 -69
854 0 853 0 -3 48 c-2 26 -9 119 -15 206 l-12 160 -57 58 c-53 55 -158 118
-195 118 -17 0 -21 6 -29 46 l-7 32 208 -5 c147 -3 204 -1 193 6 -11 8 -12 11
-2 11 22 0 8 23 -17 27 -12 2 -20 -1 -16 -7 3 -5 -10 -7 -32 -5 -21 2 -38 4
-38 5 0 1 -9 3 -20 6 -27 6 -87 -5 -81 -15 3 -4 -1 -8 -9 -8 -8 0 -12 4 -10 8
9 13 -26 19 -112 19 -78 0 -84 -1 -72 -17 13 -15 12 -15 -18 1 -45 23 -71 73
-38 73 8 0 12 -4 9 -9 -3 -4 5 -8 18 -8 18 0 20 -2 8 -10 -11 -7 -7 -10 17
-10 22 0 33 5 36 18 4 16 5 16 6 0 1 -15 11 -18 61 -18 45 0 60 4 60 14 0 9
14 15 39 18 52 5 65 0 50 -18 -9 -12 -4 -14 30 -14 28 0 41 4 41 14 0 17 62
26 86 13 12 -7 15 -5 12 9 -3 16 -14 18 -86 18 -45 0 -82 3 -82 8 0 5 -4 7 -9
4 -5 -4 -12 0 -15 6 -5 10 -7 10 -12 1 -3 -7 -11 -10 -19 -7 -7 3 -16 1 -20
-5 -10 -17 -29 -13 -55 11 l-23 22 -21 -25 c-20 -24 -22 -24 -56 -8 -21 10
-52 15 -80 13 -25 -2 -48 -3 -52 -4 -5 0 -7 -6 -5 -12 1 -9 -12 -13 -38 -14
-22 0 -53 -4 -70 -8 -29 -7 -29 -7 4 9 18 8 43 15 54 15 27 0 17 10 -17 16
-16 3 -26 0 -26 -7 0 -7 -8 -5 -20 6 -11 10 -20 22 -20 27 0 19 69 149 88 166
10 9 25 37 32 62 8 25 20 58 27 73 8 15 15 47 17 70 2 23 8 60 14 82 19 67 20
147 4 180 -9 17 -15 42 -13 57 2 22 -1 27 -14 22 -15 -6 -15 -4 0 32 l16 38
-47 43 c-26 24 -56 43 -66 43 -22 0 -109 46 -121 64 -5 8 -11 6 -18 -7 -6 -9
-14 -15 -20 -12 -5 4 -33 10 -62 15 -47 8 -57 6 -111 -22 -68 -34 -71 -37
-109 -95 -15 -24 -44 -51 -66 -62 -21 -11 -49 -33 -61 -48 l-21 -28 6 30 c4
17 16 40 27 52 11 12 21 34 21 48 -1 14 3 28 8 31 5 3 9 10 9 15 0 14 -35 -22
-43 -44 -4 -10 -11 -15 -17 -12 -5 3 -10 2 -10 -4 0 -6 -14 -17 -30 -26 -17
-9 -29 -12 -28 -8 1 4 -2 19 -6 33 -8 24 -9 24 -17 5 -6 -16 -8 -17 -8 -3 -1
9 16 31 37 49 25 22 28 27 10 15 l-28 -16 -1 32 c-1 24 -3 27 -6 11 -2 -13 -8
-23 -13 -23 -4 0 -6 -10 -4 -22 2 -13 1 -16 -2 -8 -4 8 -10 17 -14 20 -14 9
-21 48 -10 55 5 3 10 12 10 18 0 8 -3 8 -9 -1 -6 -11 -11 -10 -25 3 -9 9 -14
21 -11 26 4 5 1 9 -4 9 -15 0 -9 -28 17 -78 18 -36 20 -49 13 -83 -9 -38 -23
-56 -63 -80 -10 -5 -18 -17 -18 -27 0 -13 3 -12 15 5 13 19 19 21 40 11 38
-17 30 -78 -10 -84 -9 -1 -25 -10 -34 -18 -18 -17 -36 -22 -27 -8 2 4 1 14 -5
22 -6 11 -9 12 -9 2 0 -7 -4 -11 -9 -8 -5 3 -5 22 -1 42 5 20 6 43 3 50 -3 8
3 17 12 20 12 5 13 9 5 14 -14 9 31 87 55 97 8 3 15 9 15 14 0 4 -8 5 -17 2
-16 -6 -16 -5 -5 10 12 14 11 16 -6 14 -17 -1 -19 -5 -11 -19 8 -14 4 -26 -17
-53 -28 -37 -40 -45 -30 -19 3 8 2 12 -4 9 -6 -3 -10 3 -10 14 0 11 -7 27 -16
35 -16 16 -10 41 7 30 6 -3 5 3 -2 14 -7 11 -19 18 -28 15 -9 -3 -5 4 8 15 18
14 22 24 16 38 -8 18 -8 18 -12 1 -3 -10 -15 -28 -27 -40 l-23 -23 -1 34 c-2
41 -10 52 -22 32 -6 -8 -10 -10 -10 -4 0 6 -7 11 -15 11 -11 0 -14 -6 -9 -16z
m98 -95 c-1 -24 2 -33 11 -30 8 3 15 -7 18 -28 9 -47 0 -179 -12 -191 -7 -7
-10 5 -8 39 2 27 -2 58 -9 69 -7 11 -13 52 -14 90 -3 82 -2 85 8 85 4 0 7 -15
6 -34z m-57 -18 c-3 -8 -6 -5 -6 6 -1 11 2 17 5 13 3 -3 4 -12 1 -19z m263
-84 c0 -8 9 -24 20 -36 11 -12 20 -29 19 -37 0 -12 -3 -10 -9 4 -8 18 -9 18
-9 2 -1 -10 -6 -15 -12 -12 -6 4 -17 -1 -25 -11 -9 -11 -13 -13 -9 -6 4 7 6
37 6 67 0 32 4 53 10 50 5 -4 9 -13 9 -21z m86 -11 c-10 -10 -19 5 -10 18 6
11 8 11 12 0 2 -7 1 -15 -2 -18z m-133 -20 c-7 -2 -19 -2 -25 0 -7 3 -2 5 12
5 14 0 19 -2 13 -5z m495 -53 c38 -27 72 -50 77 -50 4 0 18 -12 31 -27 13 -16
24 -24 24 -19 0 5 9 1 20 -9 27 -24 11 -35 -52 -35 -26 0 -59 -5 -73 -12 -21
-9 -31 -9 -48 2 -12 7 -53 15 -92 18 -59 4 -74 1 -94 -15 -40 -33 -34 -113 9
-113 6 0 9 -4 6 -9 -4 -5 8 -13 26 -16 18 -4 36 -12 40 -18 4 -7 17 -6 40 3
42 18 61 36 73 73 6 17 15 32 22 34 13 5 36 -88 27 -110 -3 -8 2 -20 11 -27 8
-7 15 -18 15 -25 0 -8 6 -15 13 -18 6 -2 -13 -5 -43 -5 -30 -1 -67 -4 -82 -8
-21 -4 -28 -2 -28 10 0 13 -6 13 -46 -4 -25 -11 -51 -20 -58 -20 -7 0 -20 -15
-29 -32 l-16 -33 0 31 c-1 17 -10 39 -21 49 -11 10 -17 22 -14 27 3 5 0 15 -6
23 -17 21 -3 109 27 169 13 26 22 54 19 62 -4 9 4 18 20 24 21 8 24 13 15 24
-30 37 30 106 91 106 17 0 53 -19 96 -50z m-358 -9 c0 -5 -7 -11 -15 -15 -15
-5 -20 5 -8 17 9 10 23 9 23 -2z m-69 -38 c8 -21 6 -30 -7 -42 -15 -15 -15
-14 -4 9 10 20 10 23 0 13 -17 -15 -40 -5 -40 17 0 17 12 27 33 29 4 1 12 -11
18 -26z m-340 -56 c-10 -9 -11 -8 -5 6 3 10 9 15 12 12 3 -3 0 -11 -7 -18z
m222 -27 c-6 -23 -19 -26 -26 -6 -4 9 1 17 11 19 9 3 18 5 19 6 0 0 -1 -8 -4
-19z m154 -32 c-3 -8 -6 -5 -6 6 -1 11 2 17 5 13 3 -3 4 -12 1 -19z m253 -28
c0 -5 -12 -10 -27 -9 -25 0 -26 1 -8 9 27 12 35 12 35 0z m-204 -126 c-4 -14
-9 -24 -12 -21 -3 2 -2 17 2 31 3 15 9 25 11 22 3 -3 2 -17 -1 -32z m566 -3
c10 0 15 -8 13 -18 -2 -10 -4 -24 -4 -32 -1 -7 -7 -11 -16 -7 -8 3 -15 1 -15
-4 0 -7 -22 -8 -62 -1 -18 3 -57 48 -48 57 8 8 75 11 132 5z m-547 -125 l4
-31 -20 24 c-14 17 -18 33 -14 49 4 15 2 21 -4 17 -7 -4 -8 0 -4 11 5 14 9 12
20 -11 8 -15 16 -41 18 -59z m255 11 c0 -5 -4 -5 -10 -2 -5 3 -10 2 -10 -3 0
-6 11 -13 25 -16 38 -10 30 -26 -13 -26 -42 0 -48 13 -23 59 10 19 15 21 22
10 5 -8 9 -18 9 -22z m57 -93 c-3 -3 -12 -4 -19 -1 -8 3 -5 6 6 6 11 1 17 -2
13 -5z m-87 -34 c0 -5 -2 -10 -4 -10 -3 0 -8 5 -11 10 -3 6 -1 10 4 10 6 0 11
-4 11 -10z m-184 -65 c-5 -19 -2 -25 10 -25 13 0 11 -5 -7 -21 -13 -11 -19
-18 -12 -15 7 4 6 -5 -4 -24 -8 -17 -17 -29 -20 -26 -5 4 15 115 24 129 9 16
15 6 9 -18z m851 -111 c-3 -3 -12 -4 -19 -1 -8 3 -5 6 6 6 11 1 17 -2 13 -5z
m-277 -35 c0 -7 -16 -8 -47 -3 -65 9 -67 14 -5 14 30 0 52 -4 52 -11z m-761
-98 c36 -36 41 -84 25 -208 -14 -107 -39 -197 -65 -233 -8 -11 -9 -6 -4 20 16
87 26 153 37 251 11 102 11 108 -10 143 -12 20 -22 39 -22 42 0 11 22 2 39
-15z m-387 -143 c-15 -15 -26 -4 -18 18 5 13 9 15 18 6 9 -9 9 -15 0 -24z
m-28 -4 c13 -35 7 -46 -15 -25 -12 11 -18 24 -14 30 9 16 22 13 29 -5z m1052
-1 c-2 -10 2 -21 8 -25 7 -5 4 -8 -6 -8 -10 0 -18 8 -19 18 0 14 -2 14 -8 -3
-5 -11 -5 -28 0 -37 5 -9 9 -23 9 -30 -1 -7 -7 1 -16 17 l-14 30 6 -30 c3 -16
10 -33 16 -36 6 -4 7 -12 4 -18 -4 -6 -12 -9 -17 -6 -5 4 -9 1 -9 -5 0 -6 10
-8 26 -4 20 5 25 3 22 -7 -3 -8 -12 -13 -21 -13 -12 1 -13 -4 -6 -30 17 -59 8
-61 -15 -3 -13 32 -29 64 -36 72 -7 8 -10 15 -7 15 3 0 1 16 -3 35 -12 54 7
52 23 -2 l13 -48 0 47 c-1 25 -4 44 -8 41 -5 -2 -8 0 -8 5 0 7 52 40 67 42 1
0 0 -8 -1 -17z m103 -173 c0 -52 -3 -100 -7 -107 -4 -6 -7 50 -7 125 0 76 3
124 6 107 4 -16 7 -73 8 -125z m-210 66 c-9 -8 -10 -7 -5 7 3 10 7 26 7 35 1
9 4 6 6 -7 3 -13 -1 -28 -8 -35z m121 24 c0 -5 -5 -10 -11 -10 -5 0 -7 5 -4
10 3 6 8 10 11 10 2 0 4 -4 4 -10z m-95 -40 c3 -5 1 -10 -4 -10 -6 0 -11 5
-11 10 0 6 2 10 4 10 3 0 8 -4 11 -10z m15 -41 c0 -12 -17 -11 -25 2 -5 6 -12
4 -21 -8 -12 -17 -13 -16 -14 8 0 14 3 28 6 32 8 7 54 -22 54 -34z"/>
<path d="M305 1580 c-3 -5 1 -10 10 -10 9 0 13 5 10 10 -3 6 -8 10 -10 10 -2
0 -7 -4 -10 -10z"/>
<path d="M517 1785 c-11 -8 -17 -21 -14 -32 4 -16 5 -16 6 0 1 18 17 24 23 7
2 -5 8 2 15 15 13 29 0 33 -30 10z"/>
<path d="M16 1750 c-9 -22 -16 -50 -15 -63 0 -12 3 -16 6 -9 2 6 9 10 14 7 4
-3 11 6 15 20 3 13 9 23 13 21 4 -3 8 5 8 17 2 22 2 22 -18 -2 -23 -28 -26 -6
-3 27 8 12 11 22 6 22 -6 0 -17 -18 -26 -40z"/>
<path d="M90 1721 c0 -6 4 -13 10 -16 6 -3 7 1 4 9 -7 18 -14 21 -14 7z"/>
<path d="M88 1663 c-16 -2 -28 -8 -28 -13 0 -5 7 -6 17 -3 10 4 14 2 10 -4 -4
-6 0 -13 8 -16 8 -4 12 -1 9 6 -3 9 6 12 28 12 42 -2 71 -17 92 -50 10 -15 20
-24 23 -21 3 3 -2 12 -10 20 -9 9 -25 28 -36 42 -21 27 -59 36 -113 27z"/>
<path d="M0 1650 c0 -5 12 -10 26 -10 14 0 23 4 19 10 -3 6 -15 10 -26 10 -10
0 -19 -4 -19 -10z"/>
<path d="M10 1550 c-11 -7 -8 -10 13 -10 19 0 26 -4 21 -12 -5 -7 -2 -8 7 -3
8 4 4 -2 -8 -14 -13 -12 -23 -27 -23 -34 0 -7 5 -4 11 6 5 9 19 17 30 17 11 0
17 5 14 10 -3 6 5 10 19 10 14 0 27 4 30 8 3 5 -8 7 -23 4 -16 -2 -39 3 -52
12 -17 10 -29 12 -39 6z"/>
<path d="M1588 733 c7 -3 16 -2 19 1 4 3 -2 6 -13 5 -11 0 -14 -3 -6 -6z"/>
<path d="M8 303 c7 -3 16 -2 19 1 4 3 -2 6 -13 5 -11 0 -14 -3 -6 -6z"/>
<path d="M1754 236 c-10 -25 0 -38 13 -17 8 13 9 22 3 26 -6 4 -13 -1 -16 -9z"/>
<path d="M1720 85 l0 -85 40 0 c37 0 40 2 40 26 0 36 -50 144 -66 144 -11 0
-14 -20 -14 -85z"/>
<path d="M1765 160 c3 -5 14 -10 23 -10 15 0 15 2 2 10 -20 13 -33 13 -25 0z"/>
</g>
</svg>
